<mxfile host="app.diagrams.net" modified="2022-10-27T07:38:06.567Z" agent="5.0 (Macintosh; Intel Mac OS X 10_15_7) AppleWebKit/537.36 (KHTML, like Gecko) Chrome/106.0.0.0 Safari/537.36" etag="n7dmjAIiANykBrnsTsqD" version="20.4.0" type="github">
  <diagram id="2bKx0WHEdLVY7x2d4dLD" name="第 1 页">
    <mxGraphModel dx="901" dy="985" grid="0" gridSize="10" guides="1" tooltips="1" connect="1" arrows="1" fold="1" page="0" pageScale="1" pageWidth="827" pageHeight="1169" math="0" shadow="0">
      <root>
        <mxCell id="0" />
        <mxCell id="1" parent="0" />
        <mxCell id="-S7INPXl_ixiiSmfAI3K-76" value="" style="rounded=0;whiteSpace=wrap;html=1;fillColor=none;dashed=1;" vertex="1" parent="1">
          <mxGeometry x="297" y="39" width="473" height="201" as="geometry" />
        </mxCell>
        <mxCell id="-S7INPXl_ixiiSmfAI3K-1" value="关系网络" style="ellipse;shape=cloud;whiteSpace=wrap;html=1;" vertex="1" parent="1">
          <mxGeometry x="70" y="80" width="120" height="70" as="geometry" />
        </mxCell>
        <mxCell id="-S7INPXl_ixiiSmfAI3K-2" value="" style="rounded=0;whiteSpace=wrap;html=1;" vertex="1" parent="1">
          <mxGeometry x="310" y="50" width="40" height="20" as="geometry" />
        </mxCell>
        <mxCell id="-S7INPXl_ixiiSmfAI3K-46" style="edgeStyle=orthogonalEdgeStyle;curved=1;rounded=0;orthogonalLoop=1;jettySize=auto;html=1;exitX=1;exitY=0.5;exitDx=0;exitDy=0;entryX=0;entryY=0.5;entryDx=0;entryDy=0;endArrow=baseDash;endFill=0;" edge="1" parent="1" source="-S7INPXl_ixiiSmfAI3K-3" target="-S7INPXl_ixiiSmfAI3K-5">
          <mxGeometry relative="1" as="geometry" />
        </mxCell>
        <mxCell id="-S7INPXl_ixiiSmfAI3K-3" value="" style="ellipse;whiteSpace=wrap;html=1;aspect=fixed;" vertex="1" parent="1">
          <mxGeometry x="390" y="79" width="20" height="20" as="geometry" />
        </mxCell>
        <mxCell id="-S7INPXl_ixiiSmfAI3K-63" style="edgeStyle=none;rounded=0;orthogonalLoop=1;jettySize=auto;html=1;exitX=0.5;exitY=1;exitDx=0;exitDy=0;entryX=0.5;entryY=0;entryDx=0;entryDy=0;endArrow=none;endFill=0;" edge="1" parent="1" source="-S7INPXl_ixiiSmfAI3K-4" target="-S7INPXl_ixiiSmfAI3K-32">
          <mxGeometry relative="1" as="geometry">
            <mxPoint x="336" y="120" as="sourcePoint" />
            <mxPoint x="326" y="170" as="targetPoint" />
          </mxGeometry>
        </mxCell>
        <mxCell id="-S7INPXl_ixiiSmfAI3K-4" value="" style="rounded=0;whiteSpace=wrap;html=1;" vertex="1" parent="1">
          <mxGeometry x="310" y="100" width="40" height="20" as="geometry" />
        </mxCell>
        <mxCell id="-S7INPXl_ixiiSmfAI3K-52" style="edgeStyle=orthogonalEdgeStyle;curved=1;rounded=0;orthogonalLoop=1;jettySize=auto;html=1;entryX=0;entryY=0.5;entryDx=0;entryDy=0;endArrow=none;endFill=0;" edge="1" parent="1" source="-S7INPXl_ixiiSmfAI3K-5" target="-S7INPXl_ixiiSmfAI3K-51">
          <mxGeometry relative="1" as="geometry" />
        </mxCell>
        <mxCell id="-S7INPXl_ixiiSmfAI3K-5" value="" style="rounded=0;whiteSpace=wrap;html=1;" vertex="1" parent="1">
          <mxGeometry x="437" y="79" width="41" height="20" as="geometry" />
        </mxCell>
        <mxCell id="-S7INPXl_ixiiSmfAI3K-65" style="edgeStyle=none;rounded=0;orthogonalLoop=1;jettySize=auto;html=1;exitX=1;exitY=0.25;exitDx=0;exitDy=0;entryX=0;entryY=0.25;entryDx=0;entryDy=0;endArrow=none;endFill=0;" edge="1" parent="1">
          <mxGeometry relative="1" as="geometry">
            <mxPoint x="592" y="90" as="sourcePoint" />
            <mxPoint x="632" y="90" as="targetPoint" />
          </mxGeometry>
        </mxCell>
        <mxCell id="-S7INPXl_ixiiSmfAI3K-6" value="" style="rounded=0;whiteSpace=wrap;html=1;" vertex="1" parent="1">
          <mxGeometry x="557" y="79" width="40" height="20" as="geometry" />
        </mxCell>
        <mxCell id="-S7INPXl_ixiiSmfAI3K-61" style="edgeStyle=none;rounded=0;orthogonalLoop=1;jettySize=auto;html=1;exitX=0.5;exitY=1;exitDx=0;exitDy=0;endArrow=none;endFill=0;" edge="1" parent="1" source="-S7INPXl_ixiiSmfAI3K-7">
          <mxGeometry relative="1" as="geometry">
            <mxPoint x="560" y="190" as="sourcePoint" />
            <mxPoint x="550" y="213" as="targetPoint" />
          </mxGeometry>
        </mxCell>
        <mxCell id="-S7INPXl_ixiiSmfAI3K-7" value="" style="rounded=0;whiteSpace=wrap;html=1;" vertex="1" parent="1">
          <mxGeometry x="560" y="155" width="40" height="20" as="geometry" />
        </mxCell>
        <mxCell id="-S7INPXl_ixiiSmfAI3K-8" value="" style="rounded=0;whiteSpace=wrap;html=1;" vertex="1" parent="1">
          <mxGeometry x="510" y="200" width="40" height="20" as="geometry" />
        </mxCell>
        <mxCell id="-S7INPXl_ixiiSmfAI3K-68" style="edgeStyle=none;rounded=0;orthogonalLoop=1;jettySize=auto;html=1;exitX=0;exitY=0.5;exitDx=0;exitDy=0;entryX=1;entryY=0;entryDx=0;entryDy=0;endArrow=none;endFill=0;" edge="1" parent="1">
          <mxGeometry relative="1" as="geometry">
            <mxPoint x="510" y="143" as="sourcePoint" />
            <mxPoint x="487.57106781186553" y="163.92893218813447" as="targetPoint" />
          </mxGeometry>
        </mxCell>
        <mxCell id="-S7INPXl_ixiiSmfAI3K-70" style="edgeStyle=none;rounded=0;orthogonalLoop=1;jettySize=auto;html=1;exitX=1;exitY=0;exitDx=0;exitDy=0;entryX=0.25;entryY=0;entryDx=0;entryDy=0;endArrow=none;endFill=0;" edge="1" parent="1">
          <mxGeometry relative="1" as="geometry">
            <mxPoint x="516.0710678118655" y="137.92893218813447" as="sourcePoint" />
            <mxPoint x="560" y="163" as="targetPoint" />
          </mxGeometry>
        </mxCell>
        <mxCell id="-S7INPXl_ixiiSmfAI3K-30" value="" style="ellipse;whiteSpace=wrap;html=1;aspect=fixed;" vertex="1" parent="1">
          <mxGeometry x="509" y="127" width="20" height="20" as="geometry" />
        </mxCell>
        <mxCell id="-S7INPXl_ixiiSmfAI3K-60" style="edgeStyle=none;rounded=0;orthogonalLoop=1;jettySize=auto;html=1;exitX=0;exitY=0;exitDx=0;exitDy=0;endArrow=none;endFill=0;entryX=1;entryY=0.25;entryDx=0;entryDy=0;" edge="1" parent="1">
          <mxGeometry relative="1" as="geometry">
            <mxPoint x="472.42893218813447" y="164.92893218813447" as="sourcePoint" />
            <mxPoint x="350" y="167" as="targetPoint" />
          </mxGeometry>
        </mxCell>
        <mxCell id="-S7INPXl_ixiiSmfAI3K-62" style="edgeStyle=none;rounded=0;orthogonalLoop=1;jettySize=auto;html=1;exitX=1;exitY=1;exitDx=0;exitDy=0;entryX=0;entryY=0;entryDx=0;entryDy=0;endArrow=none;endFill=0;" edge="1" parent="1" source="-S7INPXl_ixiiSmfAI3K-31">
          <mxGeometry relative="1" as="geometry">
            <mxPoint x="489.5" y="178" as="sourcePoint" />
            <mxPoint x="510" y="213" as="targetPoint" />
          </mxGeometry>
        </mxCell>
        <mxCell id="-S7INPXl_ixiiSmfAI3K-31" value="" style="ellipse;whiteSpace=wrap;html=1;aspect=fixed;" vertex="1" parent="1">
          <mxGeometry x="469.5" y="155" width="20" height="20" as="geometry" />
        </mxCell>
        <mxCell id="-S7INPXl_ixiiSmfAI3K-32" value="" style="rounded=0;whiteSpace=wrap;html=1;" vertex="1" parent="1">
          <mxGeometry x="310" y="155" width="40" height="20" as="geometry" />
        </mxCell>
        <mxCell id="-S7INPXl_ixiiSmfAI3K-43" value="" style="endArrow=none;html=1;rounded=0;curved=1;entryX=0;entryY=0;entryDx=0;entryDy=0;" edge="1" parent="1" target="-S7INPXl_ixiiSmfAI3K-3">
          <mxGeometry width="50" height="50" relative="1" as="geometry">
            <mxPoint x="350" y="60" as="sourcePoint" />
            <mxPoint x="400" y="10" as="targetPoint" />
          </mxGeometry>
        </mxCell>
        <mxCell id="-S7INPXl_ixiiSmfAI3K-44" value="" style="endArrow=none;html=1;rounded=0;curved=1;exitX=1;exitY=0.5;exitDx=0;exitDy=0;entryX=0;entryY=0.5;entryDx=0;entryDy=0;" edge="1" parent="1" source="-S7INPXl_ixiiSmfAI3K-4" target="-S7INPXl_ixiiSmfAI3K-3">
          <mxGeometry width="50" height="50" relative="1" as="geometry">
            <mxPoint x="330" y="190" as="sourcePoint" />
            <mxPoint x="380" y="140" as="targetPoint" />
          </mxGeometry>
        </mxCell>
        <mxCell id="-S7INPXl_ixiiSmfAI3K-53" style="edgeStyle=orthogonalEdgeStyle;curved=1;rounded=0;orthogonalLoop=1;jettySize=auto;html=1;entryX=0;entryY=0.5;entryDx=0;entryDy=0;endArrow=none;endFill=0;" edge="1" parent="1" source="-S7INPXl_ixiiSmfAI3K-51" target="-S7INPXl_ixiiSmfAI3K-6">
          <mxGeometry relative="1" as="geometry" />
        </mxCell>
        <mxCell id="-S7INPXl_ixiiSmfAI3K-54" style="rounded=0;orthogonalLoop=1;jettySize=auto;html=1;exitX=0.5;exitY=1;exitDx=0;exitDy=0;entryX=1;entryY=0;entryDx=0;entryDy=0;endArrow=none;endFill=0;" edge="1" parent="1" source="-S7INPXl_ixiiSmfAI3K-51">
          <mxGeometry relative="1" as="geometry">
            <mxPoint x="542.93" y="93.04" as="sourcePoint" />
            <mxPoint x="520.0010678118655" y="126.96893218813447" as="targetPoint" />
          </mxGeometry>
        </mxCell>
        <mxCell id="-S7INPXl_ixiiSmfAI3K-51" value="" style="ellipse;whiteSpace=wrap;html=1;aspect=fixed;" vertex="1" parent="1">
          <mxGeometry x="510" y="79" width="20" height="20" as="geometry" />
        </mxCell>
        <mxCell id="-S7INPXl_ixiiSmfAI3K-64" value="" style="rounded=0;whiteSpace=wrap;html=1;" vertex="1" parent="1">
          <mxGeometry x="624" y="79" width="40" height="20" as="geometry" />
        </mxCell>
        <mxCell id="-S7INPXl_ixiiSmfAI3K-71" value="关系网络" style="ellipse;shape=cloud;whiteSpace=wrap;html=1;" vertex="1" parent="1">
          <mxGeometry x="68" y="220" width="120" height="70" as="geometry" />
        </mxCell>
        <mxCell id="-S7INPXl_ixiiSmfAI3K-74" value="" style="endArrow=classic;html=1;rounded=0;" edge="1" parent="1">
          <mxGeometry relative="1" as="geometry">
            <mxPoint x="190" y="120" as="sourcePoint" />
            <mxPoint x="280" y="120" as="targetPoint" />
          </mxGeometry>
        </mxCell>
        <mxCell id="-S7INPXl_ixiiSmfAI3K-75" value="关系解析" style="edgeLabel;resizable=0;html=1;align=center;verticalAlign=middle;" connectable="0" vertex="1" parent="-S7INPXl_ixiiSmfAI3K-74">
          <mxGeometry relative="1" as="geometry" />
        </mxCell>
        <mxCell id="-S7INPXl_ixiiSmfAI3K-77" value="" style="endArrow=none;html=1;rounded=0;endFill=0;" edge="1" parent="1">
          <mxGeometry relative="1" as="geometry">
            <mxPoint x="129" y="147" as="sourcePoint" />
            <mxPoint x="129" y="227" as="targetPoint" />
          </mxGeometry>
        </mxCell>
        <mxCell id="-S7INPXl_ixiiSmfAI3K-78" value="消息通道" style="edgeLabel;resizable=0;html=1;align=center;verticalAlign=middle;dashed=1;fillColor=none;" connectable="0" vertex="1" parent="-S7INPXl_ixiiSmfAI3K-77">
          <mxGeometry relative="1" as="geometry" />
        </mxCell>
        <mxCell id="-S7INPXl_ixiiSmfAI3K-79" value="" style="rounded=0;whiteSpace=wrap;html=1;fillColor=none;" vertex="1" parent="1">
          <mxGeometry x="674.5" y="200" width="31" height="11" as="geometry" />
        </mxCell>
        <mxCell id="-S7INPXl_ixiiSmfAI3K-80" value="" style="ellipse;whiteSpace=wrap;html=1;aspect=fixed;fillColor=none;" vertex="1" parent="1">
          <mxGeometry x="684" y="220" width="14" height="14" as="geometry" />
        </mxCell>
        <mxCell id="-S7INPXl_ixiiSmfAI3K-81" value="&lt;font style=&quot;font-size: 11px;&quot;&gt;图表组件&lt;/font&gt;" style="text;html=1;strokeColor=none;fillColor=none;align=center;verticalAlign=middle;whiteSpace=wrap;rounded=0;" vertex="1" parent="1">
          <mxGeometry x="705.5" y="195" width="59" height="21" as="geometry" />
        </mxCell>
        <mxCell id="-S7INPXl_ixiiSmfAI3K-83" value="&lt;span style=&quot;font-size: 11px;&quot;&gt;交互节点&lt;/span&gt;" style="text;html=1;strokeColor=none;fillColor=none;align=center;verticalAlign=middle;whiteSpace=wrap;rounded=0;" vertex="1" parent="1">
          <mxGeometry x="705.5" y="215" width="59" height="21" as="geometry" />
        </mxCell>
        <mxCell id="-S7INPXl_ixiiSmfAI3K-85" style="edgeStyle=none;rounded=0;orthogonalLoop=1;jettySize=auto;html=1;entryX=0.508;entryY=0.111;entryDx=0;entryDy=0;entryPerimeter=0;fontSize=11;endArrow=none;endFill=0;exitX=0.492;exitY=0.935;exitDx=0;exitDy=0;exitPerimeter=0;" edge="1" parent="1" source="-S7INPXl_ixiiSmfAI3K-84" target="-S7INPXl_ixiiSmfAI3K-1">
          <mxGeometry relative="1" as="geometry" />
        </mxCell>
        <mxCell id="-S7INPXl_ixiiSmfAI3K-84" value="关系网络" style="ellipse;shape=cloud;whiteSpace=wrap;html=1;" vertex="1" parent="1">
          <mxGeometry x="70" y="-80" width="120" height="70" as="geometry" />
        </mxCell>
        <mxCell id="-S7INPXl_ixiiSmfAI3K-86" value="消息通道" style="edgeLabel;resizable=0;html=1;align=center;verticalAlign=middle;dashed=1;fillColor=none;" connectable="0" vertex="1" parent="1">
          <mxGeometry x="130" y="40" as="geometry" />
        </mxCell>
      </root>
    </mxGraphModel>
  </diagram>
</mxfile>
